<mxfile host="Electron" modified="2023-06-21T14:52:53.774Z" agent="Mozilla/5.0 (Macintosh; Intel Mac OS X 10_15_7) AppleWebKit/537.36 (KHTML, like Gecko) draw.io/21.3.7 Chrome/112.0.5615.204 Electron/24.5.0 Safari/537.36" etag="NxddxBHGjoec723fbsXY" version="21.3.7" type="device">
  <diagram name="Page-1" id="E0A_uFTmBQWhgBRZQPYy">
    <mxGraphModel dx="1028" dy="586" grid="1" gridSize="10" guides="1" tooltips="1" connect="1" arrows="1" fold="1" page="1" pageScale="1" pageWidth="850" pageHeight="1100" math="0" shadow="0">
      <root>
        <mxCell id="0" />
        <mxCell id="1" parent="0" />
        <mxCell id="2b0UQWWvRaHJ1c4m4CIW-26" value="AWS Cloud" style="points=[[0,0],[0.25,0],[0.5,0],[0.75,0],[1,0],[1,0.25],[1,0.5],[1,0.75],[1,1],[0.75,1],[0.5,1],[0.25,1],[0,1],[0,0.75],[0,0.5],[0,0.25]];outlineConnect=0;gradientColor=none;html=1;whiteSpace=wrap;fontSize=12;fontStyle=0;container=1;pointerEvents=0;collapsible=0;recursiveResize=0;shape=mxgraph.aws4.group;grIcon=mxgraph.aws4.group_region;strokeColor=#147EBA;fillColor=none;verticalAlign=top;align=left;spacingLeft=30;fontColor=#147EBA;dashed=1;" vertex="1" parent="1">
          <mxGeometry x="150" y="200" width="672" height="310" as="geometry" />
        </mxCell>
        <mxCell id="2b0UQWWvRaHJ1c4m4CIW-28" value="GraphQL API" style="sketch=0;points=[[0,0,0],[0.25,0,0],[0.5,0,0],[0.75,0,0],[1,0,0],[0,1,0],[0.25,1,0],[0.5,1,0],[0.75,1,0],[1,1,0],[0,0.25,0],[0,0.5,0],[0,0.75,0],[1,0.25,0],[1,0.5,0],[1,0.75,0]];outlineConnect=0;fontColor=#232F3E;gradientColor=#FF4F8B;gradientDirection=north;fillColor=#BC1356;strokeColor=#ffffff;dashed=0;verticalLabelPosition=bottom;verticalAlign=top;align=center;html=1;fontSize=12;fontStyle=0;aspect=fixed;shape=mxgraph.aws4.resourceIcon;resIcon=mxgraph.aws4.appsync;" vertex="1" parent="2b0UQWWvRaHJ1c4m4CIW-26">
          <mxGeometry x="93.07999999999998" y="130" width="78" height="78" as="geometry" />
        </mxCell>
        <mxCell id="2b0UQWWvRaHJ1c4m4CIW-29" value="Posts Table" style="sketch=0;points=[[0,0,0],[0.25,0,0],[0.5,0,0],[0.75,0,0],[1,0,0],[0,1,0],[0.25,1,0],[0.5,1,0],[0.75,1,0],[1,1,0],[0,0.25,0],[0,0.5,0],[0,0.75,0],[1,0.25,0],[1,0.5,0],[1,0.75,0]];outlineConnect=0;fontColor=#232F3E;gradientColor=#4D72F3;gradientDirection=north;fillColor=#3334B9;strokeColor=#ffffff;dashed=0;verticalLabelPosition=bottom;verticalAlign=top;align=center;html=1;fontSize=12;fontStyle=0;aspect=fixed;shape=mxgraph.aws4.resourceIcon;resIcon=mxgraph.aws4.dynamodb;" vertex="1" parent="2b0UQWWvRaHJ1c4m4CIW-26">
          <mxGeometry x="564.08" y="134" width="78" height="78" as="geometry" />
        </mxCell>
        <mxCell id="2b0UQWWvRaHJ1c4m4CIW-2" value="" style="sketch=0;outlineConnect=0;fontColor=#232F3E;gradientColor=none;strokeColor=#232F3E;fillColor=#ffffff;dashed=0;verticalLabelPosition=bottom;verticalAlign=top;align=center;html=1;fontSize=12;fontStyle=0;aspect=fixed;shape=mxgraph.aws4.resourceIcon;resIcon=mxgraph.aws4.policy;" vertex="1" parent="2b0UQWWvRaHJ1c4m4CIW-26">
          <mxGeometry x="490" y="39.99999999999997" width="70" height="70" as="geometry" />
        </mxCell>
        <mxCell id="2b0UQWWvRaHJ1c4m4CIW-32" value="" style="endArrow=none;dashed=1;html=1;rounded=0;fillColor=#dae8fc;strokeColor=#6c8ebf;entryX=0;entryY=0.899;entryDx=0;entryDy=0;entryPerimeter=0;" edge="1" parent="2b0UQWWvRaHJ1c4m4CIW-26" target="2b0UQWWvRaHJ1c4m4CIW-31">
          <mxGeometry width="50" height="50" relative="1" as="geometry">
            <mxPoint x="280" y="200" as="sourcePoint" />
            <mxPoint x="320" y="200" as="targetPoint" />
          </mxGeometry>
        </mxCell>
        <mxCell id="2b0UQWWvRaHJ1c4m4CIW-35" value="" style="endArrow=none;dashed=1;html=1;rounded=0;fillColor=#dae8fc;strokeColor=#6c8ebf;" edge="1" parent="2b0UQWWvRaHJ1c4m4CIW-26">
          <mxGeometry width="50" height="50" relative="1" as="geometry">
            <mxPoint x="448" y="143" as="sourcePoint" />
            <mxPoint x="498" y="93" as="targetPoint" />
          </mxGeometry>
        </mxCell>
        <mxCell id="2b0UQWWvRaHJ1c4m4CIW-31" value="Datasources" style="shape=image;verticalLabelPosition=bottom;labelBackgroundColor=default;verticalAlign=top;aspect=fixed;imageAspect=0;image=data:image/png,iVBORw0KGgoAAAANSUhEUgAAAEIAAAAyCAYAAADodg0pAAAKqGlDQ1BJQ0MgUHJvZmlsZQAASImVlwdQU1kXgO976Y0WQEBK6E2QTgCBhNBC781GSAKEEmNIUBEbsriCa0FEBBRBVwUUXJUia0UUK4KKYF2QRURZFwuiYvkfMITd/ef///nPmzP3m/POPfecO/e+OQ8AigJHJEqDFQBIF0rEYT4etJjYOBpuCGCANsCCecCKw80QMUNCAgAiM+Pf5cN9AE2Ody0mY/37+/8qijx+BhcAKAThBF4GNx3hU4iOcEViCQCo/Yhdf4VENMltCCuLkQQR7p3kpGkemeSEKUaDKZ+IMBbCygDgyRyOOAkAMg2x0zK5SUgcMgNhKyFPIERYhLBbevoyHsLHETZBfBAbeTI+PeEvcZL+FjNBFpPDSZLxdC1TgvcUZIjSOKv+z+3435KeJp1ZwwhRcrLYN2yyZmTPelOX+ctYmBAUPMMC3pT/FCdLfSNnmJvBipthHsfTXzY3LShghhMF3mxZHAk7Yob5GV7hMyxeFiZbK1HMYs4wRzy7rjQ1UmZP5rNl8bOSI6JnOFMQFTTDGanh/rM+LJldLA2T5c8X+njMrustqz094y/1CtiyuZLkCF9Z7ZzZ/PlC5mzMjBhZbjy+p9esT6TMXyTxkK0lSguR+fPTfGT2jMxw2VwJciBn54bI9jCF4xcyw8ATeIEA5KGBEGCDPNbAUcJfKZkshLVMtEosSEqW0JjIDePT2EKu5TyajZWNLQCT93X6OLzrnbqHkCp+1ia5AQDjFgLHZ20x6wGo2QgA6fyszTQfSQM5/1fOcaXizGnb1F3CACKQRzJUR74H+sAEWCCZOQAXwECy9QPBIALEgiWAC5JBOhCDFSAbbAB5oABsB7tAKagAB8ARcAycAE3gDLgIroAboBN0g0egDwyCV2AUfAATEAThIApEhdQhHcgQModsIDrkBnlBAVAYFAvFQ0mQEJJC2dBGqAAqhEqhSqga+gU6DV2ErkFd0AOoHxqG3kKfYRRMhpVhLdgIng/TYSbsD0fAi+EkeDmcBefCW+ESuAo+CjfCF+EbcDfcB7+Cx1AARUKponRRFig6ioUKRsWhElFi1FpUPqoYVYWqQ7Wg2lF3UX2oEdQnNBZNRdPQFmgXtC86Es1FL0evRW9Bl6KPoBvRbei76H70KPobhoLRxJhjnDFsTAwmCbMCk4cpxhzCNGAuY7oxg5gPWCxWFWuMdcT6YmOxKdjV2C3Yvdh67AVsF3YAO4bD4dRx5jhXXDCOg5Pg8nB7cEdx53F3cIO4j3gSXgdvg/fGx+GF+Bx8Mb4Gfw5/Bz+EnyAoEAwJzoRgAo+wirCNcJDQQrhNGCRMEBWJxkRXYgQxhbiBWEKsI14mPia+I5FIeiQnUihJQFpPKiEdJ10l9ZM+kZXIZmQWeRFZSt5KPky+QH5AfkehUIwoDEocRULZSqmmXKI8pXyUo8pZyrHleHLr5MrkGuXuyL2WJ8gbyjPll8hnyRfLn5S/LT+iQFAwUmApcBTWKpQpnFboURhTpCpaKwYrpituUaxRvKb4QgmnZKTkpcRTylU6oHRJaYCKoupTWVQudSP1IPUydVAZq2yszFZOUS5QPqbcoTyqoqRipxKlslKlTOWsSp8qStVIla2aprpN9YTqfdXPc7TmMOfw52yeUzfnzpxxtblqDDW+Wr5avVq32md1mrqXeqr6DvUm9ScaaA0zjVCNFRr7NC5rjMxVnusylzs3f+6JuQ81YU0zzTDN1ZoHNG9qjmlpa/loibT2aF3SGtFW1WZop2gXaZ/THtah6rjpCHSKdM7rvKSp0Ji0NFoJrY02qqup66sr1a3U7dCd0DPWi9TL0avXe6JP1KfrJ+oX6bfqjxroGAQaZBvUGjw0JBjSDZMNdxu2G44bGRtFG20yajJ6YaxmzDbOMq41fmxCMXE3WW5SZXLPFGtKN0013WvaaQab2Zslm5WZ3TaHzR3MBeZ7zbvmYeY5zRPOq5rXY0G2YFpkWtRa9FuqWgZY5lg2Wb6ebzA/bv6O+e3zv1nZW6VZHbR6ZK1k7WedY91i/dbGzIZrU2Zzz5Zi6227zrbZ9o2duR3fbp9drz3VPtB+k32r/VcHRwexQ53DsKOBY7xjuWMPXZkeQt9Cv+qEcfJwWud0xumTs4OzxPmE858uFi6pLjUuLxYYL+AvOLhgwFXPleNa6drnRnOLd9vv1ueu685xr3J/xtBn8BiHGENMU2YK8yjztYeVh9ijwWOc5cxaw7rgifL08cz37PBS8or0KvV66q3nneRd6z3qY++z2ueCL8bX33eHbw9bi81lV7NH/Rz91vi1+ZP9w/1L/Z8FmAWIA1oC4UC/wJ2Bj4MMg4RBTcEgmB28M/hJiHHI8pBfQ7GhIaFloc/DrMOyw9rDqeFLw2vCP0R4RGyLeBRpEimNbI2Sj1oUVR01Hu0ZXRjdFzM/Zk3MjViNWEFscxwuLiruUNzYQq+FuxYOLrJflLfo/mLjxSsXX1uisSRtydml8ks5S0/GY+Kj42viv3CCOVWcsQR2QnnCKJfF3c19xWPwinjDfFd+IX8o0TWxMPFFkmvSzqThZPfk4uQRAUtQKniT4ptSkTKeGpx6OPV7WnRafTo+PT79tFBJmCpsW6a9bOWyLpG5KE/Ut9x5+a7lo2J/8aEMKGNxRrNEGWmMbkpNpD9I+zPdMssyP66IWnFypeJK4cqbq8xWbV41lOWd9fNq9Gru6tZs3ewN2f1rmGsq10JrE9a2rtNfl7tucL3P+iMbiBtSN9zKscopzHm/MXpjS65W7vrcgR98fqjNk8sT5/VsctlU8SP6R8GPHZttN+/Z/C2fl3+9wKqguODLFu6W6z9Z/1Ty0/etiVs7tjls27cdu124/f4O9x1HChULswoHdgbubCyiFeUXvd+1dNe1Yrviit3E3dLdfSUBJc17DPZs3/OlNLm0u8yjrL5cs3xz+fhe3t47+xj76iq0KgoqPu8X7O+t9KlsrDKqKj6APZB54PnBqIPtP9N/rj6kcajg0NfDwsN9R8KOtFU7VlfXaNZsq4VrpbXDRxcd7Tzmeay5zqKusl61vuA4OC49/vKX+F/un/A/0XqSfrLulOGp8gZqQ34j1LiqcbQpuamvOba567Tf6dYWl5aGXy1/PXxG90zZWZWz284Rz+We+34+6/zYBdGFkYtJFwdal7Y+uhRz6V5baFvHZf/LV694X7nUzmw/f9X16plrztdOX6dfb7rhcKPxpv3Nhlv2txo6HDoabzvebu506mzpWtB17o77nYt3Pe9euce+d6M7qLvrfuT93p5FPX29vN4XD9IevHmY+XDi0frHmMf5TxSeFD/VfFr1m+lv9X0OfWf7PftvPgt/9miAO/Dq94zfvwzmPqc8Lx7SGap+YfPizLD3cOfLhS8HX4leTYzk/aH4R/lrk9en/mT8eXM0ZnTwjfjN97db3qm/O/ze7n3rWMjY0w/pHybG8z+qfzzyif6p/XP056GJFV9wX0q+mn5t+eb/7fH39O/fRRwxZ6oVQCEKJyYC8PYwAJRYAKidABAXTvfTUwJN/wNMEfhPPN1zT4kDAFUXAFiI6GTreJABgDEyKiEagnAEA8C2tjKd6X2n+vRJUTgKQGeJFYvO7qloAP+U6R7+L3n/cwSyqH8b/wXKQwXoP4JVhQAAAFZlWElmTU0AKgAAAAgAAYdpAAQAAAABAAAAGgAAAAAAA5KGAAcAAAASAAAARKACAAQAAAABAAAAQqADAAQAAAABAAAAMgAAAABBU0NJSQAAAFNjcmVlbnNob3Q3VfVnAAAB1GlUWHRYTUw6Y29tLmFkb2JlLnhtcAAAAAAAPHg6eG1wbWV0YSB4bWxuczp4PSJhZG9iZTpuczptZXRhLyIgeDp4bXB0az0iWE1QIENvcmUgNi4wLjAiPgogICA8cmRmOlJERiB4bWxuczpyZGY9Imh0dHA6Ly93d3cudzMub3JnLzE5OTkvMDIvMjItcmRmLXN5bnRheC1ucyMiPgogICAgICA8cmRmOkRlc2NyaXB0aW9uIHJkZjphYm91dD0iIgogICAgICAgICAgICB4bWxuczpleGlmPSJodHRwOi8vbnMuYWRvYmUuY29tL2V4aWYvMS4wLyI+CiAgICAgICAgIDxleGlmOlBpeGVsWURpbWVuc2lvbj41MDwvZXhpZjpQaXhlbFlEaW1lbnNpb24+CiAgICAgICAgIDxleGlmOlBpeGVsWERpbWVuc2lvbj42NjwvZXhpZjpQaXhlbFhEaW1lbnNpb24+CiAgICAgICAgIDxleGlmOlVzZXJDb21tZW50PlNjcmVlbnNob3Q8L2V4aWY6VXNlckNvbW1lbnQ+CiAgICAgIDwvcmRmOkRlc2NyaXB0aW9uPgogICA8L3JkZjpSREY+CjwveDp4bXBtZXRhPgrAlVHSAAAFrUlEQVRoBe1aC1BUZRT+WEgeghoqqMkA8nAVHJhSG9RGsoEZX1PGmElNpegUIuMYKTZTQA+dbBW1xFRQjEYwSsweGjLlI5LJVz7A99SorSAjLAgsb+ien72XdbtX7q67LK17dnb/c8/9H+d8//nP/99z16FDW9sJO0Fhx6ALASceCHX5Hby/djNO/FmKlpYWXmzTZb9+/TAhPAQfr0qEA780XolPxsmzpTZtuJRx48NCuoFQTp6Njo4OnDqUjwEe/aXa2JS8rq4eT0XPg0Kh6I4RBALRowIC2erh4U4FcwAhRjCJ3s/ipDQcPX5ST2I77NRJE5C5Pu0+gyR3DVsFgawXs03SI3i4rpb8xLM2UQZHzBS1Q9IjRGvbsNAOhG5y7UDogOgxRkithta2NnyRvQc/FB1Fdc09hI0NxsqEhVAG+Us16dNyk4F4O0WFwsPFgnHFf5zBiTMXUJC9EcEBfoL8/8KYtDTOll5mIAwa6IH8zPU4fehrxMyKQktrK9K35vSK7cdKTuHzrN3I23cA1Zrahx7TJI+4cOkaG3h2dCTCQ5WMT3rrdez9sQjnL119aKUe1EFnZyeWrFqNX46VCNU2bMvB9nWpnC5jBJmxjEke0aBtZOP0d3MVxnNzc2G8VtskyPQZWjo7cvfi4K/F0DZ2tde/L5fPLTjAQPB8fCAS42JBp8Sa2jokpa6T24VoPZM8QrQnCSGB9uaKD1j84Ks8Mdwb21QpJsWS3zhAiVLfWYLp06aAPGRaTBxu3a7AjVu34eszgh/GqNIkjzBmBFXGTgbCMK+hiIuNQVhIMCj3sTzlU2aEYV/nyq5g4/av2Jd4Q6rWaJhouNcQVjo4OMB7qCfjqzQ1htVlX1vcIwqPHGfK5GxeAz9utmjbjZq7GNf+uoG/b6oxynekoOzOvAJ88tkO4XoLtz2/u2wRFrw8R5BZirGoR1Cmq6q6BpQJIhCIHnNyQoCfD+PJM3j6p7wCqoxdoBmOfXEG5s+ZwXhVRjbzIL6epUqLegS3fBlxtt1HZCwRrW+eTp+7hPb2dkROnoi0FQlMrK6oBG2Tp89fBMUVS5JsIChxU3m3mulS36A1u06ULSIaOaLbYB8dry6vREXlXXa/pbWdlQ/6aW5ugab2nlDFa4gny0IJAhFGNhAxcctRdvm6SBcWFOk8h84J9NUn3qv0ZcRruOP+c3MXob6+QbgVogzEvuxNwrUYIxuIUGUQW+98J26uLpg25Wn+0iJl9NQI0PmDZlifRnLLRBko/kxzU13OQKBYNNhzEGtGuvdEsoH4KHlpT32Z/X7E+HAU5Wea1O/Y0aPwTdYG2W0tumvI1qIPVLQDoZsEOxA6IGTHiD7gvZIqKBy65rONO7V2ch8ihcJRsr7YDbMB4cydHukE2dTcjMamJri6uAh7+QDdixQxBcwhCxrli1PnyrCGO57zh7dAf1+jujbb0nB0dMST48awt0bL3luL/T8f5h6NVUyZieGhRillbOX4N17CMO4h7OKV6+ys48U9hCUsmGdUN2bzCBo1JSkesfErcOT3E+xLMm+vwUhOjCPWYkRPtgd2b8Fh7s0cHduf5XIU/Os8uYOaFYhAfx8czN2KvO8OcrkBNQI5l419YbrRSslVXr+eu3t/UMbMVDIrEKQEneaWLpxvqj5Wa2e2GGGMBRRIiSio8tTIBVkiV2dnXtSrpVWACBkdwIzctWc/7lRWsQRN/veFTBbKPSBZg8y+NOQY8WrMTFASlvIMzzz/mtBk3NggREdOEq57k7GKR1Bg+zYrHbOipoKy0RT1KSv15abVoG3YGmQVjyBDaa9P/3ClNWwWHdMqHiGqiZWFdiB0E2AHQgdEjzFC6q82VvZksw8v6RH0TtFWiV4ZGJKkRxj+/c6woa1dS3qErRnakz12IHQI/WdpPCrB0dBDBI+w5eBoaLThNQXPfwEr7a8i7+O8xAAAAABJRU5ErkJggg==;" vertex="1" parent="2b0UQWWvRaHJ1c4m4CIW-26">
          <mxGeometry x="390" y="130" width="99.77" height="75.58" as="geometry" />
        </mxCell>
        <mxCell id="2b0UQWWvRaHJ1c4m4CIW-4" value="" style="sketch=0;outlineConnect=0;fontColor=#232F3E;gradientColor=none;strokeColor=#232F3E;fillColor=#ffffff;dashed=0;verticalLabelPosition=bottom;verticalAlign=top;align=center;html=1;fontSize=12;fontStyle=0;aspect=fixed;shape=mxgraph.aws4.resourceIcon;resIcon=mxgraph.aws4.mobile_client;" vertex="1" parent="1">
          <mxGeometry x="61" y="298.7" width="60" height="60" as="geometry" />
        </mxCell>
        <mxCell id="2b0UQWWvRaHJ1c4m4CIW-5" value="API Client" style="sketch=0;pointerEvents=1;shadow=0;dashed=0;html=1;strokeColor=none;fillColor=#434445;aspect=fixed;labelPosition=center;verticalLabelPosition=bottom;verticalAlign=top;align=center;outlineConnect=0;shape=mxgraph.vvd.web_browser;" vertex="1" parent="1">
          <mxGeometry x="52.83" y="355.8" width="68.17" height="48.4" as="geometry" />
        </mxCell>
        <mxCell id="2b0UQWWvRaHJ1c4m4CIW-7" value="FormatItem" style="shape=image;verticalLabelPosition=bottom;labelBackgroundColor=default;verticalAlign=top;aspect=fixed;imageAspect=0;image=data:image/png,iVBORw0KGgoAAAANSUhEUgAAAOAAAADhCAMAAADmr0l2AAAAkFBMVEX///8AAADw8PCFhYX29vb7+/vY2Njl5eX8/PyxsbG8vLzz8/PMzMzU1NTq6uqhoaEsLCyLi4vc3NxtbW14eHioqKjAwMA7Ozuzs7MmJibOzs5iYmJoaGhJSUkMDAxycnIeHh6QkJBQUFCZmZlYWFgxMTEYGBiHh4dMTExDQ0M4ODgwMDALCwtcXFwoKCggICD4Afu6AAAMBUlEQVR4nN1daUPqOhClUBYFFJFFn4riwr1ul///757sWeYk02aa2p6P92KbgWSWM0sajfhoj8+uXkeLJFm93b3M+iWsoEh0p/eJjrtZ2WuSQ3r2nBCY10TE7oSSbov7dtmLC8fwDor3g8+LstcXiI5TvB+MKq1smo8e8X7wWvYiA3DpF+8HN2UvMy+Gc5Z8yWfZC82JK554P+iUvdQ86DJ/vg3Oy15sDpzxxUuSs7JXmx2GZf/46/w9B2UvNyuaD+ryV9Nmu9FuDrDF6Ja94IwYr9TVfx+dsSbw2OZlLjYHBtrq79T/GpM7tWJH8Fxb/Eeq/WevZcu3KGmhOWGoz6H5/zeWgNUyElN98RP7E/8Z8l3HX2QAzN+HihQ6X+on3lLiI78WM0O+FvmpsfqRSpmIsSFfAoLZTkXlay4M+e7RJw+W5L0Zc33BeDd/QEwp7c7qS8TFCeCPKd/IoT/GrftlpbanrWBIG1FhWAcwSf4re02isMmzp7KXJIpzS77ksew1SSK15XPo0AqCivRqQMofMSTkey97UZKgUkcVs+JO2CYwISLBCuOTErBSYZAbhIkwuJiKY0QJuCx7VXIgT2CdjiCZff+qeuL2hA4lX/JQ9rLkQDPy9QmVmqR8FSM7XZjSAlYyp0niiZTvq+xliYFys5M6edpEMmWD+ph5eodWtzLExICWr1qEtQuoyq7sdUmhTQZKNdIxtJuGskoVxBIIOC17YVKw0i171CVWAn5oklQrK4ZhFxTs8FEXShTVLsHEZ9WAduifshcmhC4SsC6OGjqCyTj/M9vd8+lZJ88Z7jUHN9OzgaR+MztZDshPOA0m+zTqMiNt3BtMDuTlfCpGOb8BAT9yPu9GKdX7l4kSmH6o778Vqj+FRzBfn8DwQ38KX8LZrbmCvPWLTRV9krHfoJU2EeDhatuRM3Ojp9RJyZd8vUYS8YHixA5B/z+zFjVcU+9Z5NE1gJ3IAhRl0CXsHJcdkHp5TDGvi8UNoN/QV+f/GaziI9+rMOCJy4BL+tGv6PPesBK37WVmnhH5kgXrHvXk9AH/hacxzaUUrrLJB01CFpAeXOrqqHCzj8jR2IKnog6AgV8WkAmnvmXDNLh8Nnfn3r8s8qUfzmcxQfkXKfKG9nBYbKxftlhnEVDAQND+TRtxHgfgNKNPqY+yCAjDBibWD9fLS8rGk8lhDchho/PmCjL5i4gddGD19v58/Wc6Gwy7+Bw5tcQOwFL4V5SpDqn3p2Xiiiyt2ODx8nw47mKv8wROB+WCfM4F6Z9pCE5QQgHZwSCvxZB0mx2mc4+8IdsRPfTkFbdrnOk6UAQWo7U7mDWBh4BrYC948iWJ7f4gBzvHKjCgFuPW+bJNq+VUmt/t+vreelh4+m6J1gMcahOam/w47o2hRfw2/jLVT//rNk1woZtqAc7iG62HV2qv7rKnncKDPqkRNGnV74ujKEOl5UuCk4HLYVGGapPTd9/+Nw36HtU8mG9F+OPOnQewlkdcrOyFbHHLojQVD/TUPoiCO02Pal+DXk7V2VGOzDPiAfy6WbldRRSlPZKTq2qrwYcZTLVvXi6lOtZhfM+pUVM0sPbroPhV2aOqBSy0VAV6WQxGUrGA35qRA0VFiuVRvf6MIXtGQLKAsUVOMbzZ3oo01+FrUJ2DYvtqelCJchy140EyP/wCHnrwR5W3Fjxlp4/k4xXINHc62MrkI+Zn/2sp8r8VnEOGHBSz0Hf79wSvi6KE7X8qLtqi6IJpGOJzNVuH1rfIjd6c7J7icBZexYEOCz+tMyAndKAQY/NltHK8JTegEuXH0fQhAsrrxz9SBihEqKOCZGbo2Udc2bBx8g3DYz0/kHzB87XQHr06bdB1hEFz0BMNt77+UVcxysSgJxruHi598kWp84Oscni3BNwce8RpaoOEbTgV0nZzNSMyAycOUOebPAlU4bjzIHH6TXpf4PUSCtxJl8pE614UqER/gilEhiTxBnXCL1lEwzkyMrHagqESFZnOgasdoo1WgKkBkXYQmPWI15KI0pa3Mo9HVSXRWhJh3YCQDkBptWiF0jCcFxruAPnRWDoGsXtiewgdgVhKBipRqZYz9IJYWgY6U1IvgI6E1As8QJkzuZYzFBTG6RhqI19KjktHiYE4jbOQ9JXjupAay1R/lhvmfNAjBNta0SaRSG16AWscBM0UyoVGCZfQAZFk81ANRwzGEOYPJK0UvKMixhAX9G5BPh1XN0aYWE3NwNtCTgEQcyAPiOBwo3B+Jdf25bpEpXiHG20fuRFAzvLb4h1u5ImK6RicPRZ9DQRSomLxNmwT2UHqNRAonJeiZH21kkWPnYXhfNHPP6DoBmjkB0vdGeHrMyj8ih/ECAlFMoofiPIDBacnkBsso2OUSOUa+bwFzy1FOk7ESUwVDdZEYVmxDneKuglEnq6kJabY6S3U4UZFAiI+osKmbfwiVKtSaBIbKVGJg6FW0288d+SyFZrFRpSlgPlNlQlmW/4KdlYUWYiXv53YC4WNfNv9C2K4i5wF8pd+pUAosVQet+c/UUVcgXsU5e7CfXw17XmoRYPtQygoHASfFJT4Cd40qgv6dDxjyCYBr+JiEWxCENsVSlc0Vb/s9DMgt4m29RsbHcorACX6L1Cvaa28ynaHHWAkx7yNVB/ClgJsb2hqVyVhbpUDBtP1lNndVw6EaSDQWRpIOGskk9aXgDzfN7ui69h1HqTwwPvC+mm0og29mhd2wVrc01JkNUhvB+17TT7jNMN0/V/jIYrJDIk2QI3OG/PPu1fz0dx0lXUS1IxmYYCv50JVlyDEUoAYlBfNp3sNNVc1eXPufhIs79coEnVdQeQ+OPMsMrZz5ONXJyU/03kJ2+PDAwEUQVRzGaZEwWQNDp2uxed7x6drWh3bX2jDYR5fh6+pqfnkQa4MoPQ4xQfGn64nZzdTaz9QkSye+bO/XXSmZWrCmH0Q7XKKDzhN5eTuctTHrmZpf6CHN4FOPyCdGXaHM/DqidzpsKaDQig5C7aL379tc1YHimAcc6kshJZB0BVADMPKmM0A3T1Y1GEjNLWW0nkXhhX08vGuy2oRw20hmPgCfpM/imbM5XAMKIK23kA4c0lvlpXfCsL6yxMcp4c5tkSgUo5WhQzXwT9Uz6mIWTMjJe4rpvUZw/fz6hg3V81RMysJPp9WFYwn+4Z6+XKa/gFHMnVy5JM589k8P4FXO3hHjMnU6NCeKEc3u1vmGIfY8xOuZeocaVXByrfCCV6JPfCHgnuK2kgon0baoydWP5+jZY5HyLnGcL1LFT+R0S6v4xvvUaZ1TsHdOYlkZRBZIcdksJApY5cuwKhJrvyQdCjWzO3Rp+sHM1Qu0F7Gg2CNM/kdsjsiyXtsMyk/6hyLVjiTXyGfY+2Ygesia6rdUnIT2dJKqjFzkaEnuq89YP2SfXUz1do8XUnfXUU5atk02Li1/xVXk1muL7893S/iNucDXLig4s7MCdXmYDYbhqwtHZzPct1G4QXlTCyKeFFZoEKe+tzB16CDwdpcUbcBoWNite1HAVUpXp+LWhukJ0Iz0VUF4cfU5faoHYhwoFYqhuBjaqViKFJbalLp74DNxwRPIv9dsKsPamUjiMb2z7pcobiDbeZrc4vpDhZdwRs2XR1YbEHNfkCLEq1VINg4juQ9IUIvdFSY2aGa2UDbCtbLiWlY2StOPqhSMB3ReoURDauuuFZU0xZ6Te6q7OXIQ/8Bi27zjg+9BCDCjOvY0HZozaKIDXQdGmfwV1RofFrBLd7FoPvy2MKZ4J5aFV5JomkXCkH3WWVjJIYwR8chqYJymWo7VhUP4KnC5pZcvupnF9kbXBS0m1CvbSdTDZSq6KKZdY4tQ8SOkrcu9hqgYkDUD96psZ4qfyUVKN0U35r1f9yVdn+m5jzNfr1KAJdSj56f9V6ceZxLAoThv5zjKF8lc52MYv89Alu3y8KSK19VORgwd8MCbrr55XBfBH9Esdf8FQn/ddIbVJjE9swQ3GIV546VYsBo6vuuYnx0hHvM5QaRrpApDJ6fMFtJ9a+Esz22FjlO3FAyqfTpOwG0f99Vf3ce0LWL6VeT+oi3QUc/iXc3NdmcCtqDl9d/X8ni8+5yUMm4iMb/TLWKJUXIfFIAAAAASUVORK5CYII=;" vertex="1" parent="1">
          <mxGeometry x="381" y="310" width="39.78" height="39.96" as="geometry" />
        </mxCell>
        <mxCell id="2b0UQWWvRaHJ1c4m4CIW-8" value="GetItem" style="shape=image;verticalLabelPosition=bottom;labelBackgroundColor=default;verticalAlign=top;aspect=fixed;imageAspect=0;image=data:image/png,iVBORw0KGgoAAAANSUhEUgAAAOAAAADhCAMAAADmr0l2AAAAkFBMVEX///8AAADw8PCFhYX29vb7+/vY2Njl5eX8/PyxsbG8vLzz8/PMzMzU1NTq6uqhoaEsLCyLi4vc3NxtbW14eHioqKjAwMA7Ozuzs7MmJibOzs5iYmJoaGhJSUkMDAxycnIeHh6QkJBQUFCZmZlYWFgxMTEYGBiHh4dMTExDQ0M4ODgwMDALCwtcXFwoKCggICD4Afu6AAAMBUlEQVR4nN1daUPqOhClUBYFFJFFn4riwr1ul///757sWeYk02aa2p6P92KbgWSWM0sajfhoj8+uXkeLJFm93b3M+iWsoEh0p/eJjrtZ2WuSQ3r2nBCY10TE7oSSbov7dtmLC8fwDor3g8+LstcXiI5TvB+MKq1smo8e8X7wWvYiA3DpF+8HN2UvMy+Gc5Z8yWfZC82JK554P+iUvdQ86DJ/vg3Oy15sDpzxxUuSs7JXmx2GZf/46/w9B2UvNyuaD+ryV9Nmu9FuDrDF6Ja94IwYr9TVfx+dsSbw2OZlLjYHBtrq79T/GpM7tWJH8Fxb/Eeq/WevZcu3KGmhOWGoz6H5/zeWgNUyElN98RP7E/8Z8l3HX2QAzN+HihQ6X+on3lLiI78WM0O+FvmpsfqRSpmIsSFfAoLZTkXlay4M+e7RJw+W5L0Zc33BeDd/QEwp7c7qS8TFCeCPKd/IoT/GrftlpbanrWBIG1FhWAcwSf4re02isMmzp7KXJIpzS77ksew1SSK15XPo0AqCivRqQMofMSTkey97UZKgUkcVs+JO2CYwISLBCuOTErBSYZAbhIkwuJiKY0QJuCx7VXIgT2CdjiCZff+qeuL2hA4lX/JQ9rLkQDPy9QmVmqR8FSM7XZjSAlYyp0niiZTvq+xliYFys5M6edpEMmWD+ph5eodWtzLExICWr1qEtQuoyq7sdUmhTQZKNdIxtJuGskoVxBIIOC17YVKw0i171CVWAn5oklQrK4ZhFxTs8FEXShTVLsHEZ9WAduifshcmhC4SsC6OGjqCyTj/M9vd8+lZJ88Z7jUHN9OzgaR+MztZDshPOA0m+zTqMiNt3BtMDuTlfCpGOb8BAT9yPu9GKdX7l4kSmH6o778Vqj+FRzBfn8DwQ38KX8LZrbmCvPWLTRV9krHfoJU2EeDhatuRM3Ojp9RJyZd8vUYS8YHixA5B/z+zFjVcU+9Z5NE1gJ3IAhRl0CXsHJcdkHp5TDGvi8UNoN/QV+f/GaziI9+rMOCJy4BL+tGv6PPesBK37WVmnhH5kgXrHvXk9AH/hacxzaUUrrLJB01CFpAeXOrqqHCzj8jR2IKnog6AgV8WkAmnvmXDNLh8Nnfn3r8s8qUfzmcxQfkXKfKG9nBYbKxftlhnEVDAQND+TRtxHgfgNKNPqY+yCAjDBibWD9fLS8rGk8lhDchho/PmCjL5i4gddGD19v58/Wc6Gwy7+Bw5tcQOwFL4V5SpDqn3p2Xiiiyt2ODx8nw47mKv8wROB+WCfM4F6Z9pCE5QQgHZwSCvxZB0mx2mc4+8IdsRPfTkFbdrnOk6UAQWo7U7mDWBh4BrYC948iWJ7f4gBzvHKjCgFuPW+bJNq+VUmt/t+vreelh4+m6J1gMcahOam/w47o2hRfw2/jLVT//rNk1woZtqAc7iG62HV2qv7rKnncKDPqkRNGnV74ujKEOl5UuCk4HLYVGGapPTd9/+Nw36HtU8mG9F+OPOnQewlkdcrOyFbHHLojQVD/TUPoiCO02Pal+DXk7V2VGOzDPiAfy6WbldRRSlPZKTq2qrwYcZTLVvXi6lOtZhfM+pUVM0sPbroPhV2aOqBSy0VAV6WQxGUrGA35qRA0VFiuVRvf6MIXtGQLKAsUVOMbzZ3oo01+FrUJ2DYvtqelCJchy140EyP/wCHnrwR5W3Fjxlp4/k4xXINHc62MrkI+Zn/2sp8r8VnEOGHBSz0Hf79wSvi6KE7X8qLtqi6IJpGOJzNVuH1rfIjd6c7J7icBZexYEOCz+tMyAndKAQY/NltHK8JTegEuXH0fQhAsrrxz9SBihEqKOCZGbo2Udc2bBx8g3DYz0/kHzB87XQHr06bdB1hEFz0BMNt77+UVcxysSgJxruHi598kWp84Oscni3BNwce8RpaoOEbTgV0nZzNSMyAycOUOebPAlU4bjzIHH6TXpf4PUSCtxJl8pE614UqER/gilEhiTxBnXCL1lEwzkyMrHagqESFZnOgasdoo1WgKkBkXYQmPWI15KI0pa3Mo9HVSXRWhJh3YCQDkBptWiF0jCcFxruAPnRWDoGsXtiewgdgVhKBipRqZYz9IJYWgY6U1IvgI6E1As8QJkzuZYzFBTG6RhqI19KjktHiYE4jbOQ9JXjupAay1R/lhvmfNAjBNta0SaRSG16AWscBM0UyoVGCZfQAZFk81ANRwzGEOYPJK0UvKMixhAX9G5BPh1XN0aYWE3NwNtCTgEQcyAPiOBwo3B+Jdf25bpEpXiHG20fuRFAzvLb4h1u5ImK6RicPRZ9DQRSomLxNmwT2UHqNRAonJeiZH21kkWPnYXhfNHPP6DoBmjkB0vdGeHrMyj8ih/ECAlFMoofiPIDBacnkBsso2OUSOUa+bwFzy1FOk7ESUwVDdZEYVmxDneKuglEnq6kJabY6S3U4UZFAiI+osKmbfwiVKtSaBIbKVGJg6FW0288d+SyFZrFRpSlgPlNlQlmW/4KdlYUWYiXv53YC4WNfNv9C2K4i5wF8pd+pUAosVQet+c/UUVcgXsU5e7CfXw17XmoRYPtQygoHASfFJT4Cd40qgv6dDxjyCYBr+JiEWxCENsVSlc0Vb/s9DMgt4m29RsbHcorACX6L1Cvaa28ynaHHWAkx7yNVB/ClgJsb2hqVyVhbpUDBtP1lNndVw6EaSDQWRpIOGskk9aXgDzfN7ui69h1HqTwwPvC+mm0og29mhd2wVrc01JkNUhvB+17TT7jNMN0/V/jIYrJDIk2QI3OG/PPu1fz0dx0lXUS1IxmYYCv50JVlyDEUoAYlBfNp3sNNVc1eXPufhIs79coEnVdQeQ+OPMsMrZz5ONXJyU/03kJ2+PDAwEUQVRzGaZEwWQNDp2uxed7x6drWh3bX2jDYR5fh6+pqfnkQa4MoPQ4xQfGn64nZzdTaz9QkSye+bO/XXSmZWrCmH0Q7XKKDzhN5eTuctTHrmZpf6CHN4FOPyCdGXaHM/DqidzpsKaDQig5C7aL379tc1YHimAcc6kshJZB0BVADMPKmM0A3T1Y1GEjNLWW0nkXhhX08vGuy2oRw20hmPgCfpM/imbM5XAMKIK23kA4c0lvlpXfCsL6yxMcp4c5tkSgUo5WhQzXwT9Uz6mIWTMjJe4rpvUZw/fz6hg3V81RMysJPp9WFYwn+4Z6+XKa/gFHMnVy5JM589k8P4FXO3hHjMnU6NCeKEc3u1vmGIfY8xOuZeocaVXByrfCCV6JPfCHgnuK2kgon0baoydWP5+jZY5HyLnGcL1LFT+R0S6v4xvvUaZ1TsHdOYlkZRBZIcdksJApY5cuwKhJrvyQdCjWzO3Rp+sHM1Qu0F7Gg2CNM/kdsjsiyXtsMyk/6hyLVjiTXyGfY+2Ygesia6rdUnIT2dJKqjFzkaEnuq89YP2SfXUz1do8XUnfXUU5atk02Li1/xVXk1muL7893S/iNucDXLig4s7MCdXmYDYbhqwtHZzPct1G4QXlTCyKeFFZoEKe+tzB16CDwdpcUbcBoWNite1HAVUpXp+LWhukJ0Iz0VUF4cfU5faoHYhwoFYqhuBjaqViKFJbalLp74DNxwRPIv9dsKsPamUjiMb2z7pcobiDbeZrc4vpDhZdwRs2XR1YbEHNfkCLEq1VINg4juQ9IUIvdFSY2aGa2UDbCtbLiWlY2StOPqhSMB3ReoURDauuuFZU0xZ6Te6q7OXIQ/8Bi27zjg+9BCDCjOvY0HZozaKIDXQdGmfwV1RofFrBLd7FoPvy2MKZ4J5aFV5JomkXCkH3WWVjJIYwR8chqYJymWo7VhUP4KnC5pZcvupnF9kbXBS0m1CvbSdTDZSq6KKZdY4tQ8SOkrcu9hqgYkDUD96psZ4qfyUVKN0U35r1f9yVdn+m5jzNfr1KAJdSj56f9V6ceZxLAoThv5zjKF8lc52MYv89Alu3y8KSK19VORgwd8MCbrr55XBfBH9Esdf8FQn/ddIbVJjE9swQ3GIV546VYsBo6vuuYnx0hHvM5QaRrpApDJ6fMFtJ9a+Esz22FjlO3FAyqfTpOwG0f99Vf3ce0LWL6VeT+oi3QUc/iXc3NdmcCtqDl9d/X8ni8+5yUMm4iMb/TLWKJUXIfFIAAAAASUVORK5CYII=;" vertex="1" parent="1">
          <mxGeometry x="381" y="392.04" width="39.78" height="39.96" as="geometry" />
        </mxCell>
        <mxCell id="2b0UQWWvRaHJ1c4m4CIW-9" value="PutItem" style="shape=image;verticalLabelPosition=bottom;labelBackgroundColor=default;verticalAlign=top;aspect=fixed;imageAspect=0;image=data:image/png,iVBORw0KGgoAAAANSUhEUgAAAOAAAADhCAMAAADmr0l2AAAAkFBMVEX///8AAADw8PCFhYX29vb7+/vY2Njl5eX8/PyxsbG8vLzz8/PMzMzU1NTq6uqhoaEsLCyLi4vc3NxtbW14eHioqKjAwMA7Ozuzs7MmJibOzs5iYmJoaGhJSUkMDAxycnIeHh6QkJBQUFCZmZlYWFgxMTEYGBiHh4dMTExDQ0M4ODgwMDALCwtcXFwoKCggICD4Afu6AAAMBUlEQVR4nN1daUPqOhClUBYFFJFFn4riwr1ul///757sWeYk02aa2p6P92KbgWSWM0sajfhoj8+uXkeLJFm93b3M+iWsoEh0p/eJjrtZ2WuSQ3r2nBCY10TE7oSSbov7dtmLC8fwDor3g8+LstcXiI5TvB+MKq1smo8e8X7wWvYiA3DpF+8HN2UvMy+Gc5Z8yWfZC82JK554P+iUvdQ86DJ/vg3Oy15sDpzxxUuSs7JXmx2GZf/46/w9B2UvNyuaD+ryV9Nmu9FuDrDF6Ja94IwYr9TVfx+dsSbw2OZlLjYHBtrq79T/GpM7tWJH8Fxb/Eeq/WevZcu3KGmhOWGoz6H5/zeWgNUyElN98RP7E/8Z8l3HX2QAzN+HihQ6X+on3lLiI78WM0O+FvmpsfqRSpmIsSFfAoLZTkXlay4M+e7RJw+W5L0Zc33BeDd/QEwp7c7qS8TFCeCPKd/IoT/GrftlpbanrWBIG1FhWAcwSf4re02isMmzp7KXJIpzS77ksew1SSK15XPo0AqCivRqQMofMSTkey97UZKgUkcVs+JO2CYwISLBCuOTErBSYZAbhIkwuJiKY0QJuCx7VXIgT2CdjiCZff+qeuL2hA4lX/JQ9rLkQDPy9QmVmqR8FSM7XZjSAlYyp0niiZTvq+xliYFys5M6edpEMmWD+ph5eodWtzLExICWr1qEtQuoyq7sdUmhTQZKNdIxtJuGskoVxBIIOC17YVKw0i171CVWAn5oklQrK4ZhFxTs8FEXShTVLsHEZ9WAduifshcmhC4SsC6OGjqCyTj/M9vd8+lZJ88Z7jUHN9OzgaR+MztZDshPOA0m+zTqMiNt3BtMDuTlfCpGOb8BAT9yPu9GKdX7l4kSmH6o778Vqj+FRzBfn8DwQ38KX8LZrbmCvPWLTRV9krHfoJU2EeDhatuRM3Ojp9RJyZd8vUYS8YHixA5B/z+zFjVcU+9Z5NE1gJ3IAhRl0CXsHJcdkHp5TDGvi8UNoN/QV+f/GaziI9+rMOCJy4BL+tGv6PPesBK37WVmnhH5kgXrHvXk9AH/hacxzaUUrrLJB01CFpAeXOrqqHCzj8jR2IKnog6AgV8WkAmnvmXDNLh8Nnfn3r8s8qUfzmcxQfkXKfKG9nBYbKxftlhnEVDAQND+TRtxHgfgNKNPqY+yCAjDBibWD9fLS8rGk8lhDchho/PmCjL5i4gddGD19v58/Wc6Gwy7+Bw5tcQOwFL4V5SpDqn3p2Xiiiyt2ODx8nw47mKv8wROB+WCfM4F6Z9pCE5QQgHZwSCvxZB0mx2mc4+8IdsRPfTkFbdrnOk6UAQWo7U7mDWBh4BrYC948iWJ7f4gBzvHKjCgFuPW+bJNq+VUmt/t+vreelh4+m6J1gMcahOam/w47o2hRfw2/jLVT//rNk1woZtqAc7iG62HV2qv7rKnncKDPqkRNGnV74ujKEOl5UuCk4HLYVGGapPTd9/+Nw36HtU8mG9F+OPOnQewlkdcrOyFbHHLojQVD/TUPoiCO02Pal+DXk7V2VGOzDPiAfy6WbldRRSlPZKTq2qrwYcZTLVvXi6lOtZhfM+pUVM0sPbroPhV2aOqBSy0VAV6WQxGUrGA35qRA0VFiuVRvf6MIXtGQLKAsUVOMbzZ3oo01+FrUJ2DYvtqelCJchy140EyP/wCHnrwR5W3Fjxlp4/k4xXINHc62MrkI+Zn/2sp8r8VnEOGHBSz0Hf79wSvi6KE7X8qLtqi6IJpGOJzNVuH1rfIjd6c7J7icBZexYEOCz+tMyAndKAQY/NltHK8JTegEuXH0fQhAsrrxz9SBihEqKOCZGbo2Udc2bBx8g3DYz0/kHzB87XQHr06bdB1hEFz0BMNt77+UVcxysSgJxruHi598kWp84Oscni3BNwce8RpaoOEbTgV0nZzNSMyAycOUOebPAlU4bjzIHH6TXpf4PUSCtxJl8pE614UqER/gilEhiTxBnXCL1lEwzkyMrHagqESFZnOgasdoo1WgKkBkXYQmPWI15KI0pa3Mo9HVSXRWhJh3YCQDkBptWiF0jCcFxruAPnRWDoGsXtiewgdgVhKBipRqZYz9IJYWgY6U1IvgI6E1As8QJkzuZYzFBTG6RhqI19KjktHiYE4jbOQ9JXjupAay1R/lhvmfNAjBNta0SaRSG16AWscBM0UyoVGCZfQAZFk81ANRwzGEOYPJK0UvKMixhAX9G5BPh1XN0aYWE3NwNtCTgEQcyAPiOBwo3B+Jdf25bpEpXiHG20fuRFAzvLb4h1u5ImK6RicPRZ9DQRSomLxNmwT2UHqNRAonJeiZH21kkWPnYXhfNHPP6DoBmjkB0vdGeHrMyj8ih/ECAlFMoofiPIDBacnkBsso2OUSOUa+bwFzy1FOk7ESUwVDdZEYVmxDneKuglEnq6kJabY6S3U4UZFAiI+osKmbfwiVKtSaBIbKVGJg6FW0288d+SyFZrFRpSlgPlNlQlmW/4KdlYUWYiXv53YC4WNfNv9C2K4i5wF8pd+pUAosVQet+c/UUVcgXsU5e7CfXw17XmoRYPtQygoHASfFJT4Cd40qgv6dDxjyCYBr+JiEWxCENsVSlc0Vb/s9DMgt4m29RsbHcorACX6L1Cvaa28ynaHHWAkx7yNVB/ClgJsb2hqVyVhbpUDBtP1lNndVw6EaSDQWRpIOGskk9aXgDzfN7ui69h1HqTwwPvC+mm0og29mhd2wVrc01JkNUhvB+17TT7jNMN0/V/jIYrJDIk2QI3OG/PPu1fz0dx0lXUS1IxmYYCv50JVlyDEUoAYlBfNp3sNNVc1eXPufhIs79coEnVdQeQ+OPMsMrZz5ONXJyU/03kJ2+PDAwEUQVRzGaZEwWQNDp2uxed7x6drWh3bX2jDYR5fh6+pqfnkQa4MoPQ4xQfGn64nZzdTaz9QkSye+bO/XXSmZWrCmH0Q7XKKDzhN5eTuctTHrmZpf6CHN4FOPyCdGXaHM/DqidzpsKaDQig5C7aL379tc1YHimAcc6kshJZB0BVADMPKmM0A3T1Y1GEjNLWW0nkXhhX08vGuy2oRw20hmPgCfpM/imbM5XAMKIK23kA4c0lvlpXfCsL6yxMcp4c5tkSgUo5WhQzXwT9Uz6mIWTMjJe4rpvUZw/fz6hg3V81RMysJPp9WFYwn+4Z6+XKa/gFHMnVy5JM589k8P4FXO3hHjMnU6NCeKEc3u1vmGIfY8xOuZeocaVXByrfCCV6JPfCHgnuK2kgon0baoydWP5+jZY5HyLnGcL1LFT+R0S6v4xvvUaZ1TsHdOYlkZRBZIcdksJApY5cuwKhJrvyQdCjWzO3Rp+sHM1Qu0F7Gg2CNM/kdsjsiyXtsMyk/6hyLVjiTXyGfY+2Ygesia6rdUnIT2dJKqjFzkaEnuq89YP2SfXUz1do8XUnfXUU5atk02Li1/xVXk1muL7893S/iNucDXLig4s7MCdXmYDYbhqwtHZzPct1G4QXlTCyKeFFZoEKe+tzB16CDwdpcUbcBoWNite1HAVUpXp+LWhukJ0Iz0VUF4cfU5faoHYhwoFYqhuBjaqViKFJbalLp74DNxwRPIv9dsKsPamUjiMb2z7pcobiDbeZrc4vpDhZdwRs2XR1YbEHNfkCLEq1VINg4juQ9IUIvdFSY2aGa2UDbCtbLiWlY2StOPqhSMB3ReoURDauuuFZU0xZ6Te6q7OXIQ/8Bi27zjg+9BCDCjOvY0HZozaKIDXQdGmfwV1RofFrBLd7FoPvy2MKZ4J5aFV5JomkXCkH3WWVjJIYwR8chqYJymWo7VhUP4KnC5pZcvupnF9kbXBS0m1CvbSdTDZSq6KKZdY4tQ8SOkrcu9hqgYkDUD96psZ4qfyUVKN0U35r1f9yVdn+m5jzNfr1KAJdSj56f9V6ceZxLAoThv5zjKF8lc52MYv89Alu3y8KSK19VORgwd8MCbrr55XBfBH9Esdf8FQn/ddIbVJjE9swQ3GIV546VYsBo6vuuYnx0hHvM5QaRrpApDJ6fMFtJ9a+Esz22FjlO3FAyqfTpOwG0f99Vf3ce0LWL6VeT+oi3QUc/iXc3NdmcCtqDl9d/X8ni8+5yUMm4iMb/TLWKJUXIfFIAAAAASUVORK5CYII=;" vertex="1" parent="1">
          <mxGeometry x="459" y="310" width="39.78" height="39.96" as="geometry" />
        </mxCell>
        <mxCell id="2b0UQWWvRaHJ1c4m4CIW-12" value="Schema" style="dashed=0;outlineConnect=0;html=1;align=center;labelPosition=center;verticalLabelPosition=bottom;verticalAlign=top;shape=mxgraph.weblogos.json" vertex="1" parent="1">
          <mxGeometry x="171" y="239.7" width="51" height="59" as="geometry" />
        </mxCell>
        <mxCell id="2b0UQWWvRaHJ1c4m4CIW-13" value="" style="endArrow=none;dashed=1;html=1;rounded=0;fillColor=#dae8fc;strokeColor=#6c8ebf;" edge="1" parent="1" target="2b0UQWWvRaHJ1c4m4CIW-12">
          <mxGeometry width="50" height="50" relative="1" as="geometry">
            <mxPoint x="242.86823104693144" y="330" as="sourcePoint" />
            <mxPoint x="421" y="340" as="targetPoint" />
          </mxGeometry>
        </mxCell>
        <mxCell id="2b0UQWWvRaHJ1c4m4CIW-14" value="" style="endArrow=none;dashed=1;html=1;rounded=0;entryX=0;entryY=0.5;entryDx=0;entryDy=0;fillColor=#dae8fc;strokeColor=#6c8ebf;" edge="1" parent="1">
          <mxGeometry width="50" height="50" relative="1" as="geometry">
            <mxPoint x="331" y="341" as="sourcePoint" />
            <mxPoint x="381" y="340.98" as="targetPoint" />
          </mxGeometry>
        </mxCell>
        <mxCell id="2b0UQWWvRaHJ1c4m4CIW-15" value="" style="endArrow=none;dashed=1;html=1;rounded=0;fillColor=#dae8fc;strokeColor=#6c8ebf;" edge="1" parent="1">
          <mxGeometry width="50" height="50" relative="1" as="geometry">
            <mxPoint x="331" y="401" as="sourcePoint" />
            <mxPoint x="381" y="401.01430819859775" as="targetPoint" />
          </mxGeometry>
        </mxCell>
        <mxCell id="2b0UQWWvRaHJ1c4m4CIW-16" value="" style="endArrow=none;dashed=1;html=1;rounded=0;fillColor=#dae8fc;strokeColor=#6c8ebf;" edge="1" parent="1">
          <mxGeometry width="50" height="50" relative="1" as="geometry">
            <mxPoint x="420.78" y="338.98" as="sourcePoint" />
            <mxPoint x="471" y="338.98" as="targetPoint" />
          </mxGeometry>
        </mxCell>
        <mxCell id="2b0UQWWvRaHJ1c4m4CIW-18" value="" style="endArrow=classic;html=1;rounded=0;strokeWidth=2;" edge="1" parent="1">
          <mxGeometry width="50" height="50" relative="1" as="geometry">
            <mxPoint x="640" y="349" as="sourcePoint" />
            <mxPoint x="711" y="349" as="targetPoint" />
          </mxGeometry>
        </mxCell>
        <mxCell id="2b0UQWWvRaHJ1c4m4CIW-19" value="" style="endArrow=classic;html=1;rounded=0;strokeWidth=2;" edge="1" parent="1">
          <mxGeometry width="50" height="50" relative="1" as="geometry">
            <mxPoint x="640" y="400" as="sourcePoint" />
            <mxPoint x="711" y="400" as="targetPoint" />
          </mxGeometry>
        </mxCell>
        <mxCell id="2b0UQWWvRaHJ1c4m4CIW-21" value="Query, Mutation" style="endArrow=classic;html=1;rounded=0;strokeWidth=2;" edge="1" parent="1">
          <mxGeometry width="50" height="50" relative="1" as="geometry">
            <mxPoint x="131" y="380" as="sourcePoint" />
            <mxPoint x="241" y="380" as="targetPoint" />
          </mxGeometry>
        </mxCell>
        <mxCell id="2b0UQWWvRaHJ1c4m4CIW-25" value="Subscription" style="endArrow=classic;html=1;rounded=0;strokeWidth=2;" edge="1" parent="1">
          <mxGeometry width="50" height="50" relative="1" as="geometry">
            <mxPoint x="241" y="357" as="sourcePoint" />
            <mxPoint x="131" y="357" as="targetPoint" />
          </mxGeometry>
        </mxCell>
        <mxCell id="2b0UQWWvRaHJ1c4m4CIW-33" value="" style="endArrow=none;dashed=1;html=1;rounded=0;fillColor=#dae8fc;strokeColor=#6c8ebf;" edge="1" parent="1">
          <mxGeometry width="50" height="50" relative="1" as="geometry">
            <mxPoint x="497.78" y="338.98" as="sourcePoint" />
            <mxPoint x="548" y="338.98" as="targetPoint" />
          </mxGeometry>
        </mxCell>
        <mxCell id="2b0UQWWvRaHJ1c4m4CIW-36" value="IAM Policy" style="text;html=1;strokeColor=none;fillColor=none;align=center;verticalAlign=middle;whiteSpace=wrap;rounded=0;" vertex="1" parent="1">
          <mxGeometry x="644" y="294" width="60" height="30" as="geometry" />
        </mxCell>
      </root>
    </mxGraphModel>
  </diagram>
</mxfile>
